<mxfile host="app.diagrams.net" modified="2023-10-28T08:04:22.027Z" agent="Mozilla/5.0 (X11; Linux x86_64) AppleWebKit/537.36 (KHTML, like Gecko) Chrome/118.0.0.0 Safari/537.36 Edg/118.0.2088.69" etag="M0ttLdZluimiFcjScwy7" version="22.0.8" type="github">
  <diagram name="Page-1" id="4Y6qzK2X0lg_IjQ6qIef">
    <mxGraphModel dx="2426" dy="1619" grid="1" gridSize="26" guides="1" tooltips="1" connect="1" arrows="1" fold="1" page="0" pageScale="1" pageWidth="850" pageHeight="1100" math="0" shadow="0">
      <root>
        <mxCell id="0" />
        <mxCell id="1" parent="0" />
        <mxCell id="wbXFEZonadfN1o7QLdWr-2" value="" style="rounded=0;whiteSpace=wrap;html=1;fontSize=16;" vertex="1" parent="1">
          <mxGeometry x="-208" y="-416" width="1456" height="1456" as="geometry" />
        </mxCell>
        <mxCell id="wbXFEZonadfN1o7QLdWr-3" value="Reading" style="ellipse;whiteSpace=wrap;html=1;fontSize=16;" vertex="1" parent="1">
          <mxGeometry y="26" width="120" height="80" as="geometry" />
        </mxCell>
        <mxCell id="wbXFEZonadfN1o7QLdWr-4" value="Hadit" style="ellipse;whiteSpace=wrap;html=1;fontSize=16;" vertex="1" parent="1">
          <mxGeometry x="312" y="208" width="120" height="80" as="geometry" />
        </mxCell>
        <mxCell id="wbXFEZonadfN1o7QLdWr-5" value="Quran" style="ellipse;whiteSpace=wrap;html=1;fontSize=16;" vertex="1" parent="1">
          <mxGeometry x="312" y="-182" width="120" height="80" as="geometry" />
        </mxCell>
        <mxCell id="wbXFEZonadfN1o7QLdWr-6" value="Navigate Qibla" style="ellipse;whiteSpace=wrap;html=1;fontSize=16;" vertex="1" parent="1">
          <mxGeometry y="338" width="120" height="80" as="geometry" />
        </mxCell>
        <mxCell id="wbXFEZonadfN1o7QLdWr-7" value="&amp;lt;&amp;lt;include&amp;gt;&amp;gt;" style="html=1;verticalAlign=bottom;labelBackgroundColor=none;endArrow=open;endFill=0;dashed=1;rounded=0;fontSize=12;startSize=8;endSize=8;curved=1;entryX=0;entryY=0.5;entryDx=0;entryDy=0;exitX=1;exitY=0.5;exitDx=0;exitDy=0;" edge="1" parent="1" source="wbXFEZonadfN1o7QLdWr-3" target="wbXFEZonadfN1o7QLdWr-5">
          <mxGeometry width="160" relative="1" as="geometry">
            <mxPoint x="182" y="260" as="sourcePoint" />
            <mxPoint x="342" y="260" as="targetPoint" />
          </mxGeometry>
        </mxCell>
        <mxCell id="wbXFEZonadfN1o7QLdWr-9" value="&amp;lt;&amp;lt;extend&amp;gt;&amp;gt;" style="html=1;verticalAlign=bottom;labelBackgroundColor=none;endArrow=open;endFill=0;dashed=1;rounded=0;fontSize=12;startSize=8;endSize=8;curved=1;entryX=1;entryY=0.5;entryDx=0;entryDy=0;exitX=0;exitY=0.5;exitDx=0;exitDy=0;" edge="1" parent="1" source="wbXFEZonadfN1o7QLdWr-4" target="wbXFEZonadfN1o7QLdWr-3">
          <mxGeometry width="160" relative="1" as="geometry">
            <mxPoint x="182" y="260" as="sourcePoint" />
            <mxPoint x="342" y="260" as="targetPoint" />
          </mxGeometry>
        </mxCell>
        <mxCell id="wbXFEZonadfN1o7QLdWr-11" style="edgeStyle=none;curved=1;rounded=0;orthogonalLoop=1;jettySize=auto;html=1;exitX=1;exitY=0.3333333333333333;exitDx=0;exitDy=0;exitPerimeter=0;entryX=0;entryY=0.5;entryDx=0;entryDy=0;fontSize=12;startSize=8;endSize=8;" edge="1" parent="1" source="wbXFEZonadfN1o7QLdWr-10" target="wbXFEZonadfN1o7QLdWr-3">
          <mxGeometry relative="1" as="geometry" />
        </mxCell>
        <mxCell id="wbXFEZonadfN1o7QLdWr-12" style="edgeStyle=none;curved=1;rounded=0;orthogonalLoop=1;jettySize=auto;html=1;exitX=1;exitY=0.3333333333333333;exitDx=0;exitDy=0;exitPerimeter=0;fontSize=12;startSize=8;endSize=8;entryX=0;entryY=0.5;entryDx=0;entryDy=0;" edge="1" parent="1" source="wbXFEZonadfN1o7QLdWr-10" target="wbXFEZonadfN1o7QLdWr-6">
          <mxGeometry relative="1" as="geometry">
            <mxPoint x="-494" y="260" as="targetPoint" />
          </mxGeometry>
        </mxCell>
        <mxCell id="wbXFEZonadfN1o7QLdWr-10" value="Actor" style="shape=umlActor;verticalLabelPosition=bottom;verticalAlign=top;html=1;outlineConnect=0;fontSize=16;" vertex="1" parent="1">
          <mxGeometry x="-624" y="208" width="104" height="104" as="geometry" />
        </mxCell>
        <mxCell id="wbXFEZonadfN1o7QLdWr-13" value="Listening" style="ellipse;whiteSpace=wrap;html=1;fontSize=16;" vertex="1" parent="1">
          <mxGeometry x="624" y="-130" width="120" height="80" as="geometry" />
        </mxCell>
        <mxCell id="wbXFEZonadfN1o7QLdWr-14" value="&amp;lt;&amp;lt;extend&amp;gt;&amp;gt;" style="html=1;verticalAlign=bottom;labelBackgroundColor=none;endArrow=open;endFill=0;dashed=1;rounded=0;fontSize=12;startSize=8;endSize=8;curved=1;entryX=1;entryY=0.5;entryDx=0;entryDy=0;exitX=0;exitY=0.5;exitDx=0;exitDy=0;" edge="1" parent="1" source="wbXFEZonadfN1o7QLdWr-13" target="wbXFEZonadfN1o7QLdWr-5">
          <mxGeometry width="160" relative="1" as="geometry">
            <mxPoint x="383" y="207" as="sourcePoint" />
            <mxPoint x="191" y="25" as="targetPoint" />
          </mxGeometry>
        </mxCell>
        <mxCell id="wbXFEZonadfN1o7QLdWr-16" value="Search" style="ellipse;whiteSpace=wrap;html=1;fontSize=16;" vertex="1" parent="1">
          <mxGeometry x="624" y="272" width="120" height="80" as="geometry" />
        </mxCell>
        <mxCell id="wbXFEZonadfN1o7QLdWr-17" value="&amp;lt;&amp;lt;extend&amp;gt;&amp;gt;" style="html=1;verticalAlign=bottom;labelBackgroundColor=none;endArrow=open;endFill=0;dashed=1;rounded=0;fontSize=12;startSize=8;endSize=8;curved=1;entryX=1;entryY=0.5;entryDx=0;entryDy=0;exitX=0;exitY=0.5;exitDx=0;exitDy=0;" edge="1" parent="1" source="wbXFEZonadfN1o7QLdWr-16" target="wbXFEZonadfN1o7QLdWr-4">
          <mxGeometry width="160" relative="1" as="geometry">
            <mxPoint x="650" y="88" as="sourcePoint" />
            <mxPoint x="458" y="36" as="targetPoint" />
          </mxGeometry>
        </mxCell>
      </root>
    </mxGraphModel>
  </diagram>
</mxfile>
